<svg width="413" height="66" viewBox="0 0 413 66" fill="none" xmlns="http://www.w3.org/2000/svg">
<path d="M50.002 6.652C49.624 11.782 49.435 16.372 49.435 20.422C49.435 22.96 49.516 25.012 49.678 26.578H47.815C46.519 19.936 44.737 15.265 42.469 12.565C40.255 9.865 37.204 8.51499 33.316 8.51499H31.453V54.766C31.453 57.034 31.669 58.681 32.101 59.707C32.587 60.733 33.397 61.435 34.531 61.813C35.719 62.137 37.582 62.326 40.12 62.38V64C33.316 63.838 28.186 63.757 24.73 63.757C21.328 63.757 16.387 63.838 9.907 64V62.38C12.445 62.326 14.281 62.137 15.415 61.813C16.603 61.435 17.413 60.733 17.845 59.707C18.331 58.681 18.574 57.034 18.574 54.766V8.51499H16.792C14.2 8.51499 11.986 9.082 10.15 10.216C8.368 11.35 6.829 13.24 5.533 15.886C4.237 18.478 3.13 22.042 2.212 26.578H0.349C0.511 25.012 0.592 22.96 0.592 20.422C0.592 16.372 0.403 11.782 0.025 6.652C4.939 6.814 13.282 6.895 25.054 6.895C36.826 6.895 45.142 6.814 50.002 6.652ZM81.9135 20.989C84.3435 20.989 86.1795 21.718 87.4215 23.176C88.6635 24.634 89.2845 26.389 89.2845 28.441C89.2845 30.439 88.6905 32.086 87.5025 33.382C86.3685 34.624 84.8565 35.245 82.9665 35.245C81.1305 35.245 79.6725 34.786 78.5925 33.868C77.5125 32.896 76.9725 31.627 76.9725 30.061C76.9725 27.469 78.1605 25.363 80.5365 23.743C80.3205 23.689 79.9965 23.662 79.5645 23.662C79.0245 23.662 78.5925 23.716 78.2685 23.824C76.2165 24.148 74.4615 25.39 73.0035 27.55C71.5995 29.71 70.8975 31.924 70.8975 34.192V55.657C70.8975 58.141 71.4915 59.869 72.6795 60.841C73.9215 61.813 75.8655 62.299 78.5115 62.299V64C77.7555 64 77.1345 63.973 76.6485 63.919C71.1405 63.757 67.4685 63.676 65.6325 63.676C64.1745 63.676 60.8535 63.757 55.6695 63.919C55.2375 63.973 54.6975 64 54.0495 64V62.299C55.9935 62.299 57.3435 61.894 58.0995 61.084C58.8555 60.22 59.2335 58.681 59.2335 56.467V30.952C59.2335 28.468 58.8555 26.659 58.0995 25.525C57.3435 24.391 55.9935 23.824 54.0495 23.824V22.123C55.7775 22.285 57.4515 22.366 59.0715 22.366C63.8775 22.366 67.8195 21.988 70.8975 21.232V28.765C71.9235 26.443 73.4085 24.58 75.3525 23.176C77.2965 21.718 79.4835 20.989 81.9135 20.989ZM102.552 64.567C99.096 64.567 96.504 63.676 94.776 61.894C93.102 60.112 92.265 57.763 92.265 54.847C92.265 52.417 92.886 50.419 94.128 48.853C95.424 47.233 96.963 45.991 98.745 45.127C100.581 44.263 102.903 43.345 105.711 42.373C108.681 41.347 110.841 40.429 112.191 39.619C113.595 38.755 114.297 37.594 114.297 36.136V29.818C114.297 27.55 113.757 25.795 112.677 24.553C111.651 23.257 110.031 22.609 107.817 22.609C105.225 22.609 103.254 23.257 101.904 24.553C103.416 25.093 104.577 25.903 105.387 26.983C106.251 28.063 106.683 29.332 106.683 30.79C106.683 32.626 106.062 34.084 104.82 35.164C103.578 36.244 102.066 36.784 100.284 36.784C98.394 36.784 96.936 36.19 95.91 35.002C94.884 33.814 94.371 32.329 94.371 30.547C94.371 29.035 94.722 27.766 95.424 26.74C96.18 25.66 97.314 24.661 98.826 23.743C100.284 22.879 102.066 22.204 104.172 21.718C106.332 21.232 108.681 20.989 111.219 20.989C113.865 20.989 116.16 21.259 118.104 21.799C120.048 22.339 121.668 23.257 122.964 24.553C124.152 25.741 124.935 27.199 125.313 28.927C125.745 30.655 125.961 33.004 125.961 35.974V58.006C125.961 59.302 126.069 60.22 126.285 60.76C126.555 61.3 127.041 61.57 127.743 61.57C128.553 61.57 129.525 61.111 130.659 60.193L131.469 61.57C129.039 63.568 126.069 64.567 122.559 64.567C119.589 64.567 117.51 63.973 116.322 62.785C115.134 61.597 114.513 60.004 114.459 58.006C111.759 62.38 107.79 64.567 102.552 64.567ZM108.789 59.383C110.895 59.383 112.731 58.276 114.297 56.062V39.457C113.649 40.537 112.272 41.725 110.166 43.021C108.06 44.371 106.467 45.721 105.387 47.071C104.307 48.421 103.767 50.365 103.767 52.903C103.767 55.117 104.226 56.764 105.144 57.844C106.062 58.87 107.277 59.383 108.789 59.383ZM163.916 20.989C168.02 20.989 170.99 22.042 172.826 24.148C173.744 25.174 174.392 26.497 174.77 28.117C175.148 29.737 175.337 31.924 175.337 34.678V56.467C175.337 58.681 175.715 60.22 176.471 61.084C177.281 61.894 178.631 62.299 180.521 62.299V64C175.121 63.784 171.557 63.676 169.829 63.676C168.209 63.676 164.699 63.784 159.299 64V62.299C160.919 62.299 162.053 61.894 162.701 61.084C163.349 60.22 163.673 58.681 163.673 56.467V31.276C163.673 29.062 163.295 27.388 162.539 26.254C161.837 25.12 160.541 24.553 158.651 24.553C156.437 24.553 154.547 25.471 152.981 27.307C151.415 29.089 150.632 31.303 150.632 33.949V56.467C150.632 58.681 150.956 60.22 151.604 61.084C152.252 61.894 153.386 62.299 155.006 62.299V64C150.038 63.784 146.69 63.676 144.962 63.676C143.342 63.676 139.616 63.784 133.784 64V62.299C135.728 62.299 137.078 61.894 137.834 61.084C138.59 60.22 138.968 58.681 138.968 56.467V30.952C138.968 28.468 138.59 26.659 137.834 25.525C137.078 24.391 135.728 23.824 133.784 23.824V22.123C135.512 22.285 137.186 22.366 138.806 22.366C143.612 22.366 147.554 21.988 150.632 21.232V28.522C153.062 23.5 157.49 20.989 163.916 20.989ZM199.577 20.989C201.629 20.989 203.519 21.259 205.247 21.799C206.975 22.285 208.298 22.852 209.216 23.5C209.756 23.878 210.242 24.067 210.674 24.067C211.16 24.067 211.565 23.824 211.889 23.338C212.267 22.798 212.51 22.042 212.618 21.07H214.319C214.103 23.824 213.995 28.576 213.995 35.326H212.294C211.808 31.762 210.728 28.792 209.054 26.416C207.434 23.986 205.058 22.771 201.926 22.771C200.306 22.771 198.956 23.23 197.876 24.148C196.85 25.066 196.337 26.335 196.337 27.955C196.337 29.791 196.958 31.384 198.2 32.734C199.442 34.03 201.386 35.623 204.032 37.513L206.381 39.214C209.675 41.698 212.105 43.912 213.671 45.856C215.237 47.8 216.02 50.23 216.02 53.146C216.02 55.522 215.318 57.628 213.914 59.464C212.564 61.3 210.728 62.704 208.406 63.676C206.084 64.648 203.519 65.134 200.711 65.134C197.741 65.134 195.203 64.567 193.097 63.433C191.369 62.569 190.127 62.002 189.371 61.732C188.831 61.57 188.345 61.759 187.913 62.299C187.535 62.785 187.238 63.541 187.022 64.567H185.321C185.537 61.489 185.645 56.089 185.645 48.367H187.346C188.426 58.303 192.071 63.271 198.281 63.271C199.847 63.271 201.17 62.812 202.25 61.894C203.384 60.922 203.951 59.464 203.951 57.52C203.951 56.008 203.6 54.658 202.898 53.47C202.25 52.282 201.413 51.229 200.387 50.311C199.361 49.393 197.822 48.124 195.77 46.504C193.34 44.56 191.477 42.994 190.181 41.806C188.939 40.618 187.859 39.214 186.941 37.594C186.077 35.974 185.645 34.165 185.645 32.167C185.645 28.711 186.995 25.984 189.695 23.986C192.395 21.988 195.689 20.989 199.577 20.989ZM237.478 56.467C237.478 58.681 237.856 60.22 238.612 61.084C239.368 61.894 240.718 62.299 242.662 62.299V64C237.046 63.784 233.428 63.676 231.808 63.676C229.972 63.676 226.246 63.784 220.63 64V62.299C222.52 62.299 223.843 61.894 224.599 61.084C225.409 60.22 225.814 58.681 225.814 56.467V10.297C225.814 7.813 225.409 6.004 224.599 4.87C223.843 3.736 222.52 3.169 220.63 3.169V1.468C222.358 1.63 224.032 1.711 225.652 1.711C230.35 1.711 234.292 1.333 237.478 0.576996V56.467ZM256.8 64.567C253.344 64.567 250.752 63.676 249.024 61.894C247.35 60.112 246.513 57.763 246.513 54.847C246.513 52.417 247.134 50.419 248.376 48.853C249.672 47.233 251.211 45.991 252.993 45.127C254.829 44.263 257.151 43.345 259.959 42.373C262.929 41.347 265.089 40.429 266.439 39.619C267.843 38.755 268.545 37.594 268.545 36.136V29.818C268.545 27.55 268.005 25.795 266.925 24.553C265.899 23.257 264.279 22.609 262.065 22.609C259.473 22.609 257.502 23.257 256.152 24.553C257.664 25.093 258.825 25.903 259.635 26.983C260.499 28.063 260.931 29.332 260.931 30.79C260.931 32.626 260.31 34.084 259.068 35.164C257.826 36.244 256.314 36.784 254.532 36.784C252.642 36.784 251.184 36.19 250.158 35.002C249.132 33.814 248.619 32.329 248.619 30.547C248.619 29.035 248.97 27.766 249.672 26.74C250.428 25.66 251.562 24.661 253.074 23.743C254.532 22.879 256.314 22.204 258.42 21.718C260.58 21.232 262.929 20.989 265.467 20.989C268.113 20.989 270.408 21.259 272.352 21.799C274.296 22.339 275.916 23.257 277.212 24.553C278.4 25.741 279.183 27.199 279.561 28.927C279.993 30.655 280.209 33.004 280.209 35.974V58.006C280.209 59.302 280.317 60.22 280.533 60.76C280.803 61.3 281.289 61.57 281.991 61.57C282.801 61.57 283.773 61.111 284.907 60.193L285.717 61.57C283.287 63.568 280.317 64.567 276.807 64.567C273.837 64.567 271.758 63.973 270.57 62.785C269.382 61.597 268.761 60.004 268.707 58.006C266.007 62.38 262.038 64.567 256.8 64.567ZM263.037 59.383C265.143 59.383 266.979 58.276 268.545 56.062V39.457C267.897 40.537 266.52 41.725 264.414 43.021C262.308 44.371 260.715 45.721 259.635 47.071C258.555 48.421 258.015 50.365 258.015 52.903C258.015 55.117 258.474 56.764 259.392 57.844C260.31 58.87 261.525 59.383 263.037 59.383ZM304.475 22.123H314.033V23.743H304.475V56.467C304.475 58.087 304.745 59.248 305.285 59.95C305.879 60.598 306.797 60.922 308.039 60.922C310.361 60.922 312.197 59.302 313.547 56.062L314.924 56.791C312.872 62.353 309.173 65.134 303.827 65.134C300.263 65.134 297.563 64.216 295.727 62.38C294.593 61.246 293.81 59.842 293.378 58.168C293 56.44 292.811 54.091 292.811 51.121V23.743H286.007V22.123H292.811V11.431C297.293 11.431 301.181 10.567 304.475 8.839V22.123ZM337.09 20.989C343.3 20.989 348.16 22.771 351.67 26.335C355.18 29.845 356.935 35.434 356.935 43.102C356.935 50.77 355.18 56.359 351.67 59.869C348.16 63.379 343.3 65.134 337.09 65.134C330.934 65.134 326.074 63.379 322.51 59.869C319 56.359 317.245 50.77 317.245 43.102C317.245 35.434 319 29.845 322.51 26.335C326.074 22.771 330.934 20.989 337.09 20.989ZM337.09 22.609C334.768 22.609 332.905 24.31 331.501 27.712C330.151 31.06 329.476 36.19 329.476 43.102C329.476 50.014 330.151 55.144 331.501 58.492C332.905 61.84 334.768 63.514 337.09 63.514C339.466 63.514 341.329 61.867 342.679 58.573C344.029 55.225 344.704 50.068 344.704 43.102C344.704 36.136 344.002 30.979 342.598 27.631C341.248 24.283 339.412 22.609 337.09 22.609ZM389.856 20.989C392.286 20.989 394.122 21.718 395.364 23.176C396.606 24.634 397.227 26.389 397.227 28.441C397.227 30.439 396.633 32.086 395.445 33.382C394.311 34.624 392.799 35.245 390.909 35.245C389.073 35.245 387.615 34.786 386.535 33.868C385.455 32.896 384.915 31.627 384.915 30.061C384.915 27.469 386.103 25.363 388.479 23.743C388.263 23.689 387.939 23.662 387.507 23.662C386.967 23.662 386.535 23.716 386.211 23.824C384.159 24.148 382.404 25.39 380.946 27.55C379.542 29.71 378.84 31.924 378.84 34.192V55.657C378.84 58.141 379.434 59.869 380.622 60.841C381.864 61.813 383.808 62.299 386.454 62.299V64C385.698 64 385.077 63.973 384.591 63.919C379.083 63.757 375.411 63.676 373.575 63.676C372.117 63.676 368.796 63.757 363.612 63.919C363.18 63.973 362.64 64 361.992 64V62.299C363.936 62.299 365.286 61.894 366.042 61.084C366.798 60.22 367.176 58.681 367.176 56.467V30.952C367.176 28.468 366.798 26.659 366.042 25.525C365.286 24.391 363.936 23.824 361.992 23.824V22.123C363.72 22.285 365.394 22.366 367.014 22.366C371.82 22.366 375.762 21.988 378.84 21.232V28.765C379.866 26.443 381.351 24.58 383.295 23.176C385.239 21.718 387.426 20.989 389.856 20.989ZM405.629 52.66C407.735 52.66 409.409 53.227 410.651 54.361C411.893 55.441 412.514 56.953 412.514 58.897C412.514 60.841 411.893 62.38 410.651 63.514C409.409 64.594 407.735 65.134 405.629 65.134C403.523 65.134 401.849 64.594 400.607 63.514C399.365 62.38 398.744 60.841 398.744 58.897C398.744 56.953 399.365 55.441 400.607 54.361C401.849 53.227 403.523 52.66 405.629 52.66Z" fill="#202020"/>
</svg>
